<?xml version="1.0" encoding="UTF-8" standalone="yes"?>
<svg width="96" height="96" viewBox="0 0 68 78" fill="none" version="1.2" baseProfile="tiny-ps" xmlns="http://www.w3.org/2000/svg">
  <title>e-ingatlankozvetitok.hu</title>
  <path d="M26.6188 47.8954V28.2583H30.1795V37.281H30.4194L38.0878 28.2583H42.4355L34.8343 37.0701L42.5027 47.8954H38.2222L32.3581 39.4768L30.1795 42.0465V47.8954H26.6188Z" fill="#2DD4BF"/>
  <path fill-rule="evenodd" d="M33.2833 1.25639C33.895 0.912025 34.6446 0.914721 35.2538 1.26347L66.0066 18.8682C66.6212 19.2201 67 19.871 67 20.5754V39.4902C67 40.3605 66.2893 41.066 65.4127 41.066C64.5361 41.066 63.8254 40.3605 63.8254 39.4902V22.3965C63.8254 21.692 63.4467 21.0412 62.832 20.6893L35.2406 4.89428C34.6314 4.54553 33.8818 4.54284 33.27 4.8872L5.18048 20.6994C4.55877 21.0493 4.17456 21.7041 4.17456 22.4136V26.6247C4.17456 27.4949 4.74939 28.262 5.58884 28.5122L13.3496 30.825C14.1891 31.0752 14.6655 31.9536 14.4138 32.7871C14.1619 33.621 13.2767 34.0943 12.4368 33.844L2.41428 30.8571C1.57483 30.6069 1 29.8398 1 28.9696V20.5773C1 19.8678 1.38421 19.213 2.00591 18.863L33.2833 1.25639ZM1 38.5098C1 37.6395 1.71065 36.934 2.58728 36.934C3.46392 36.934 4.17456 37.6395 4.17456 38.5098L4.17456 55.6035C4.17456 56.308 4.55331 56.9588 5.168 57.3107L32.7594 73.1057C33.3686 73.4545 34.1182 73.4572 34.73 73.1128L62.8195 57.3006C63.4412 56.9507 63.8254 56.2959 63.8254 55.5863L63.8254 51.3753C63.8254 50.5051 63.2506 49.738 62.4112 49.4878L54.6504 47.175C53.8109 46.9248 53.3345 46.0464 53.5862 45.2129C53.8381 44.379 54.7233 43.9057 55.5632 44.156L65.5857 47.1429C66.4252 47.3931 67 48.1602 67 49.0304L67 57.4227C67 58.1322 66.6158 58.787 65.9941 59.137L34.7167 76.7436C34.105 77.088 33.3554 77.0853 32.7462 76.7365L1.99344 59.1318C1.37875 58.7799 1 58.129 1 57.4246L1 38.5098Z" fill="#2DD4BF"/>
  <path d="M26.6188 47.8954V28.2583H30.1795V37.281H30.4194L38.0878 28.2583H42.4355L34.8343 37.0701L42.5027 47.8954H38.2222L32.3581 39.4768L30.1795 42.0465V47.8954H26.6188Z" fill="#2DD4BF"/>
  <path d="M26.6188 47.8954V28.2583H30.1795V37.281H30.4194L38.0878 28.2583H42.4355L34.8343 37.0701L42.5027 47.8954H38.2222L32.3581 39.4768L30.1795 42.0465V47.8954H26.6188Z" stroke="#2DD4BF" stroke-width="2"/>
  <path fill-rule="evenodd" d="M33.2833 1.25639C33.895 0.912025 34.6446 0.914721 35.2538 1.26347L66.0066 18.8682C66.6212 19.2201 67 19.871 67 20.5754V39.4902C67 40.3605 66.2893 41.066 65.4127 41.066C64.5361 41.066 63.8254 40.3605 63.8254 39.4902V22.3965C63.8254 21.692 63.4467 21.0412 62.832 20.6893L35.2406 4.89428C34.6314 4.54553 33.8818 4.54284 33.27 4.8872L5.18048 20.6994C4.55877 21.0493 4.17456 21.7041 4.17456 22.4136V26.6247C4.17456 27.4949 4.74939 28.262 5.58884 28.5122L13.3496 30.825C14.1891 31.0752 14.6655 31.9536 14.4138 32.7871C14.1619 33.621 13.2767 34.0943 12.4368 33.844L2.41428 30.8571C1.57483 30.6069 1 29.8398 1 28.9696V20.5773C1 19.8678 1.38421 19.213 2.00591 18.863L33.2833 1.25639ZM1 38.5098C1 37.6395 1.71065 36.934 2.58728 36.934C3.46392 36.934 4.17456 37.6395 4.17456 38.5098L4.17456 55.6035C4.17456 56.308 4.55331 56.9588 5.168 57.3107L32.7594 73.1057C33.3686 73.4545 34.1182 73.4572 34.73 73.1128L62.8195 57.3006C63.4412 56.9507 63.8254 56.2959 63.8254 55.5863L63.8254 51.3753C63.8254 50.5051 63.2506 49.738 62.4112 49.4878L54.6504 47.175C53.8109 46.9248 53.3345 46.0464 53.5862 45.2129C53.8381 44.379 54.7233 43.9057 55.5632 44.156L65.5857 47.1429C66.4252 47.3931 67 48.1602 67 49.0304L67 57.4227C67 58.1322 66.6158 58.787 65.9941 59.137L34.7167 76.7436C34.105 77.088 33.3554 77.0853 32.7462 76.7365L1.99344 59.1318C1.37875 58.7799 1 58.129 1 57.4246L1 38.5098Z" stroke="#2DD4BF" stroke-width="2"/>
  <path d="M26.6188 47.8954V28.2583H30.1795V37.281H30.4194L38.0878 28.2583H42.4355L34.8343 37.0701L42.5027 47.8954H38.2222L32.3581 39.4768L30.1795 42.0465V47.8954H26.6188Z" stroke="#2DD4BF" stroke-width="2"/>
</svg>