<?xml version="1.0"?>
<svg xmlns="http://www.w3.org/2000/svg" width="96" height="96" viewBox="0 0 96 96" fill="none"
  version="1.2" baseProfile="tiny-ps">
  <title>
    e-ingatlankozvetitok
  </title>

  <path d="M96 0H0V96H96V0Z" fill="white" />
  <path
    d="M44.1247 55C43.5036 55 43 54.5074 43 53.8999V40.1C43 39.4925 43.5036 39 44.1247 39H51.9936C52.4788 39 52.8722 39.3848 52.8722 39.8594C52.8722 40.3341 52.4788 40.7188 51.9936 40.7188H46.1055C45.4844 40.7188 44.9808 41.2112 44.9808 41.8188V45.025C44.9808 45.6325 45.4844 46.125 46.1055 46.125H51.4824C51.9677 46.125 52.361 46.5098 52.361 46.9843C52.361 47.459 51.9677 47.8437 51.4824 47.8437H46.1055C45.4844 47.8437 44.9808 48.3362 44.9808 48.9437V52.1812C44.9808 52.7888 45.4844 53.2812 46.1055 53.2812H52.1214C52.6067 53.2812 53 53.6659 53 54.1406C53 54.6152 52.6067 55 52.1214 55H44.1247Z"
    fill="#2dd4bf" />
  <path
    d="M44.0372 56C43.4644 56 43 55.5023 43 54.8886V40.1114C43 39.4976 43.4644 39 44.0372 39H51.845C52.4178 39 52.8822 39.4976 52.8822 40.1114V40.4588C52.8822 41.0726 52.4178 41.5702 51.845 41.5702H46.6418C46.069 41.5702 45.6046 42.0678 45.6046 42.6816V45.0877C45.6046 45.7015 46.069 46.1991 46.6418 46.1991H51.3736C51.9464 46.1991 52.4107 46.6968 52.4107 47.3105V47.6579C52.4107 48.2717 51.9464 48.7693 51.3736 48.7693H46.6418C46.069 48.7693 45.6046 49.2669 45.6046 49.8807V52.3184C45.6046 52.9322 46.069 53.4298 46.6418 53.4298H51.9629C52.5357 53.4298 53 53.9274 53 54.5412V54.8886C53 55.5023 52.5357 56 51.9629 56H44.0372ZM46.2529 53.8466C45.6801 53.8466 45.2157 53.349 45.2157 52.7351V49.4639C45.2157 48.8501 45.6801 48.3525 46.2529 48.3525H51.2116C51.6591 48.3525 52.0218 47.9638 52.0218 47.4842C52.0218 47.0047 51.6591 46.6159 51.2116 46.6159H46.2529C45.6801 46.6159 45.2157 46.1183 45.2157 45.5044V42.2649C45.2157 41.651 45.6801 41.1534 46.2529 41.1534H51.683C52.1304 41.1534 52.4932 40.7647 52.4932 40.2851C52.4932 39.8056 52.1304 39.4168 51.683 39.4168H44.4261C43.8533 39.4168 43.3889 39.9144 43.3889 40.5282V54.4717C43.3889 55.0855 43.8533 55.5832 44.4261 55.5832H51.8008C52.2484 55.5832 52.6111 55.1944 52.6111 54.7149C52.6111 54.2353 52.2484 53.8466 51.8008 53.8466H46.2529Z"
    fill="#2dd4bf" />
  <path
    d="M46.9027 16.2159C47.4125 15.9259 48.0372 15.9282 48.5448 16.2219L74.1722 31.0469C74.6843 31.3432 75 31.8914 75 32.4846V48.4128C75 49.1457 74.4078 49.7398 73.6773 49.7398C72.9467 49.7398 72.3545 49.1457 72.3545 48.4128V34.0181C72.3545 33.4249 72.0389 32.8768 71.5267 32.5804L48.5338 19.2794C48.0261 18.9857 47.4015 18.9834 46.8916 19.2734L23.4837 32.589C22.9656 32.8836 22.6455 33.4351 22.6455 34.0325V37.5787C22.6455 38.3114 23.1245 38.9575 23.824 39.1682L30.2914 41.1158C30.9909 41.3265 31.3879 42.0662 31.1781 42.7681C30.9683 43.4704 30.2306 43.8689 29.5307 43.658L21.1786 41.1428C20.479 40.9321 20 40.2861 20 39.5534V32.4861C20 31.8886 20.3202 31.3373 20.8383 31.0425L46.9027 16.2159ZM20 47.5872C20 46.8543 20.5922 46.2601 21.3227 46.2601C22.0533 46.2601 22.6455 46.8543 22.6455 47.5872L22.6455 61.9819C22.6455 62.5751 22.9611 63.1232 23.4733 63.4196L46.4662 76.7206C46.9739 77.0143 47.5985 77.0166 48.1084 76.7266L71.5163 63.411C72.0344 63.1164 72.3545 62.5649 72.3545 61.9675V58.4213C72.3545 57.6886 71.8755 57.0425 71.176 56.8318L64.7086 54.8841C64.0091 54.6735 63.6121 53.9338 63.8219 53.2319C64.0317 52.5296 64.7694 52.1311 65.4693 52.342L73.8215 54.8572C74.521 55.0678 75 55.7139 75 56.4466V63.5139C75 64.1114 74.6798 64.6627 74.1618 64.9575L48.0973 79.7841C47.5875 80.0741 46.9628 80.0718 46.4552 79.7782L20.8279 64.9531C20.3156 64.6568 20 64.1086 20 63.5154V47.5872Z"
    fill="#2dd4bf" />
  <path
    d="M44.1247 55C43.5036 55 43 54.5074 43 53.8999V40.1C43 39.4925 43.5036 39 44.1247 39H51.9936C52.4788 39 52.8722 39.3848 52.8722 39.8594C52.8722 40.3341 52.4788 40.7188 51.9936 40.7188H46.1055C45.4844 40.7188 44.9808 41.2112 44.9808 41.8188V45.025C44.9808 45.6325 45.4844 46.125 46.1055 46.125H51.4824C51.9677 46.125 52.361 46.5098 52.361 46.9843C52.361 47.459 51.9677 47.8437 51.4824 47.8437H46.1055C45.4844 47.8437 44.9808 48.3362 44.9808 48.9437V52.1812C44.9808 52.7888 45.4844 53.2812 46.1055 53.2812H52.1214C52.6067 53.2812 53 53.6659 53 54.1406C53 54.6152 52.6067 55 52.1214 55H44.1247Z"
    stroke="#2dd4bf" />
  <path
    d="M44.0372 56C43.4644 56 43 55.5023 43 54.8886V40.1114C43 39.4976 43.4644 39 44.0372 39H51.845C52.4178 39 52.8822 39.4976 52.8822 40.1114V40.4588C52.8822 41.0726 52.4178 41.5702 51.845 41.5702H46.6418C46.069 41.5702 45.6046 42.0678 45.6046 42.6816V45.0877C45.6046 45.7015 46.069 46.1991 46.6418 46.1991H51.3736C51.9464 46.1991 52.4107 46.6968 52.4107 47.3105V47.6579C52.4107 48.2717 51.9464 48.7693 51.3736 48.7693H46.6418C46.069 48.7693 45.6046 49.2669 45.6046 49.8807V52.3184C45.6046 52.9322 46.069 53.4298 46.6418 53.4298H51.9629C52.5357 53.4298 53 53.9274 53 54.5412V54.8886C53 55.5023 52.5357 56 51.9629 56H44.0372ZM46.2529 53.8466C45.6801 53.8466 45.2157 53.349 45.2157 52.7351V49.4639C45.2157 48.8501 45.6801 48.3525 46.2529 48.3525H51.2116C51.6591 48.3525 52.0218 47.9638 52.0218 47.4842C52.0218 47.0047 51.6591 46.6159 51.2116 46.6159H46.2529C45.6801 46.6159 45.2157 46.1183 45.2157 45.5044V42.2649C45.2157 41.651 45.6801 41.1534 46.2529 41.1534H51.683C52.1304 41.1534 52.4932 40.7647 52.4932 40.2851C52.4932 39.8056 52.1304 39.4168 51.683 39.4168H44.4261C43.8533 39.4168 43.3889 39.9144 43.3889 40.5282V54.4717C43.3889 55.0855 43.8533 55.5832 44.4261 55.5832H51.8008C52.2484 55.5832 52.6111 55.1944 52.6111 54.7149C52.6111 54.2353 52.2484 53.8466 51.8008 53.8466H46.2529Z"
    stroke="#2dd4bf" />

</svg>