<svg xmlns="http://www.w3.org/2000/svg" width="96" height="96" viewBox="0 0 66 76" fill="none">
  <path d="M28.9244 46.4121C28.2157 46.4121 27.6411 45.8393 27.6411 45.1328V29.0845C27.6411 28.378 28.2157 27.8053 28.9244 27.8053H37.9032C38.4568 27.8053 38.9057 28.2528 38.9057 28.8047C38.9057 29.3567 38.4568 29.8041 37.9032 29.8041H31.1846C30.4759 29.8041 29.9013 30.3768 29.9013 31.0833V34.8119C29.9013 35.5184 30.4759 36.0911 31.1846 36.0911H37.3199C37.8736 36.0911 38.3224 36.5386 38.3224 37.0905C38.3224 37.6425 37.8736 38.0899 37.3199 38.0899H31.1846C30.4759 38.0899 29.9013 38.6626 29.9013 39.3691V43.1341C29.9013 43.8406 30.4759 44.4133 31.1846 44.4133H38.049C38.6027 44.4133 39.0515 44.8607 39.0515 45.4127C39.0515 45.9646 38.6027 46.4121 38.049 46.4121H28.9244Z" fill="#2dd4bf"/>
  <path fillRule="evenodd" clipRule="evenodd" d="M28.4432 46.8918C27.7345 46.8918 27.1599 46.319 27.1599 45.6126V28.6048C27.1599 27.8983 27.7345 27.3256 28.4432 27.3256H38.1037C38.8124 27.3256 39.3869 27.8983 39.3869 28.6048V29.0046C39.3869 29.7111 38.8124 30.2838 38.1037 30.2838H31.6658C30.9571 30.2838 30.3825 30.8565 30.3825 31.563V34.3322C30.3825 35.0387 30.9571 35.6114 31.6658 35.6114H37.5204C38.2291 35.6114 38.8036 36.1842 38.8036 36.8906V37.2904C38.8036 37.9969 38.2291 38.5696 37.5204 38.5696H31.6658C30.9571 38.5696 30.3825 39.1423 30.3825 39.8488V42.6544C30.3825 43.3609 30.9571 43.9336 31.6658 43.9336H38.2495C38.9582 43.9336 39.5327 44.5063 39.5327 45.2128V45.6126C39.5327 46.319 38.9582 46.8918 38.2495 46.8918H28.4432ZM31.1846 44.4133C30.4759 44.4133 29.9013 43.8406 29.9013 43.1341V39.3691C29.9013 38.6626 30.4759 38.0899 31.1846 38.0899H37.3199C37.8736 38.0899 38.3224 37.6425 38.3224 37.0905C38.3224 36.5386 37.8736 36.0911 37.3199 36.0911H31.1846C30.4759 36.0911 29.9013 35.5184 29.9013 34.8119V31.0833C29.9013 30.3768 30.4759 29.8041 31.1846 29.8041H37.9032C38.4568 29.8041 38.9057 29.3567 38.9057 28.8047C38.9057 28.2528 38.4568 27.8053 37.9032 27.8053H28.9244C28.2157 27.8053 27.6411 28.378 27.6411 29.0845V45.1328C27.6411 45.8393 28.2157 46.4121 28.9244 46.4121H38.049C38.6027 46.4121 39.0515 45.9646 39.0515 45.4127C39.0515 44.8607 38.6027 44.4133 38.049 44.4133H31.1846Z" fill="#2dd4bf"/>
  <path fillRule="evenodd" clipRule="evenodd" d="M32.305 1.24964C32.8982 0.91434 33.6251 0.916966 34.2158 1.25654L64.0367 18.398C64.6327 18.7406 65 19.3744 65 20.0603V38.4773C65 39.3247 64.3109 40.0117 63.4608 40.0117C62.6107 40.0117 61.9216 39.3247 61.9216 38.4773V21.8334C61.9216 21.1475 61.5544 20.5138 60.9583 20.1711L34.203 4.7918C33.6122 4.45223 32.8854 4.4496 32.2921 4.78491L5.0538 20.181C4.45093 20.5217 4.07836 21.1593 4.07836 21.8501V25.9504C4.07836 26.7976 4.63577 27.5446 5.44979 27.7882L12.9754 30.0402C13.7894 30.2838 14.2514 31.139 14.0073 31.9506C13.7631 32.7626 12.9047 33.2234 12.0903 32.9796L2.37142 30.0714C1.55741 29.8278 1 29.0808 1 28.2336V20.0621C1 19.3712 1.37256 18.7337 1.97543 18.3929L32.305 1.24964ZM1 37.5227C1 36.6753 1.68912 35.9883 2.53918 35.9883C3.38925 35.9883 4.07837 36.6753 4.07837 37.5227L4.07836 54.1666C4.07836 54.8525 4.44564 55.4862 5.0417 55.8289L31.797 71.2082C32.3878 71.5478 33.1146 71.5504 33.7079 71.2151L60.9462 55.819C61.5491 55.4783 61.9216 54.8407 61.9216 54.1499L61.9216 50.0496C61.9216 49.2024 61.3642 48.4554 60.5502 48.2118L53.0246 45.9598C52.2106 45.7162 51.7486 44.861 51.9927 44.0494C52.2369 43.2374 53.0953 42.7766 53.9097 43.0204L63.6286 45.9286C64.4426 46.1722 65 46.9192 65 47.7664L65 55.9379C65 56.6288 64.6274 57.2663 64.0246 57.6071L33.695 74.7504C33.1018 75.0857 32.3749 75.083 31.7842 74.7435L1.96333 57.602C1.36727 57.2594 1 56.6256 1 55.9397L1 37.5227Z" fill="#2dd4bf"/>
  <path d="M28.9244 46.4121C28.2157 46.4121 27.6411 45.8393 27.6411 45.1328V29.0845C27.6411 28.378 28.2157 27.8053 28.9244 27.8053H37.9032C38.4568 27.8053 38.9057 28.2528 38.9057 28.8047C38.9057 29.3567 38.4568 29.8041 37.9032 29.8041H31.1846C30.4759 29.8041 29.9013 30.3768 29.9013 31.0833V34.8119C29.9013 35.5184 30.4759 36.0911 31.1846 36.0911H37.3199C37.8736 36.0911 38.3224 36.5386 38.3224 37.0905C38.3224 37.6425 37.8736 38.0899 37.3199 38.0899H31.1846C30.4759 38.0899 29.9013 38.6626 29.9013 39.3691V43.1341C29.9013 43.8406 30.4759 44.4133 31.1846 44.4133H38.049C38.6027 44.4133 39.0515 44.8607 39.0515 45.4127C39.0515 45.9646 38.6027 46.4121 38.049 46.4121H28.9244Z" stroke="#2dd4bf" strokeWidth="2" strokeLinejoin="round"/>
  <path fillRule="evenodd" clipRule="evenodd" d="M28.4432 46.8918C27.7345 46.8918 27.1599 46.319 27.1599 45.6126V28.6048C27.1599 27.8983 27.7345 27.3256 28.4432 27.3256H38.1037C38.8124 27.3256 39.3869 27.8983 39.3869 28.6048V29.0046C39.3869 29.7111 38.8124 30.2838 38.1037 30.2838H31.6658C30.9571 30.2838 30.3825 30.8565 30.3825 31.563V34.3322C30.3825 35.0387 30.9571 35.6114 31.6658 35.6114H37.5204C38.2291 35.6114 38.8036 36.1842 38.8036 36.8906V37.2904C38.8036 37.9969 38.2291 38.5696 37.5204 38.5696H31.6658C30.9571 38.5696 30.3825 39.1423 30.3825 39.8488V42.6544C30.3825 43.3609 30.9571 43.9336 31.6658 43.9336H38.2495C38.9582 43.9336 39.5327 44.5063 39.5327 45.2128V45.6126C39.5327 46.319 38.9582 46.8918 38.2495 46.8918H28.4432ZM31.1846 44.4133C30.4759 44.4133 29.9013 43.8406 29.9013 43.1341V39.3691C29.9013 38.6626 30.4759 38.0899 31.1846 38.0899H37.3199C37.8736 38.0899 38.3224 37.6425 38.3224 37.0905C38.3224 36.5386 37.8736 36.0911 37.3199 36.0911H31.1846C30.4759 36.0911 29.9013 35.5184 29.9013 34.8119V31.0833C29.9013 30.3768 30.4759 29.8041 31.1846 29.8041H37.9032C38.4568 29.8041 38.9057 29.3567 38.9057 28.8047C38.9057 28.2528 38.4568 27.8053 37.9032 27.8053H28.9244C28.2157 27.8053 27.6411 28.378 27.6411 29.0845V45.1328C27.6411 45.8393 28.2157 46.4121 28.9244 46.4121H38.049C38.6027 46.4121 39.0515 45.9646 39.0515 45.4127C39.0515 44.8607 38.6027 44.4133 38.049 44.4133H31.1846Z" stroke="#2dd4bf" strokeWidth="2" strokeLinejoin="round"/>
  <path fillRule="evenodd" clipRule="evenodd" d="M32.305 1.24964C32.8982 0.91434 33.6251 0.916966 34.2158 1.25654L64.0367 18.398C64.6327 18.7406 65 19.3744 65 20.0603V38.4773C65 39.3247 64.3109 40.0117 63.4608 40.0117C62.6107 40.0117 61.9216 39.3247 61.9216 38.4773V21.8334C61.9216 21.1475 61.5544 20.5138 60.9583 20.1711L34.203 4.7918C33.6122 4.45223 32.8854 4.4496 32.2921 4.78491L5.0538 20.181C4.45093 20.5217 4.07836 21.1593 4.07836 21.8501V25.9504C4.07836 26.7976 4.63577 27.5446 5.44979 27.7882L12.9754 30.0402C13.7894 30.2838 14.2514 31.139 14.0073 31.9506C13.7631 32.7626 12.9047 33.2234 12.0903 32.9796L2.37142 30.0714C1.55741 29.8278 1 29.0808 1 28.2336V20.0621C1 19.3712 1.37256 18.7337 1.97543 18.3929L32.305 1.24964ZM1 37.5227C1 36.6753 1.68912 35.9883 2.53918 35.9883C3.38925 35.9883 4.07837 36.6753 4.07837 37.5227L4.07836 54.1666C4.07836 54.8525 4.44564 55.4862 5.0417 55.8289L31.797 71.2082C32.3878 71.5478 33.1146 71.5504 33.7079 71.2151L60.9462 55.819C61.5491 55.4783 61.9216 54.8407 61.9216 54.1499L61.9216 50.0496C61.9216 49.2024 61.3642 48.4554 60.5502 48.2118L53.0246 45.9598C52.2106 45.7162 51.7486 44.861 51.9927 44.0494C52.2369 43.2374 53.0953 42.7766 53.9097 43.0204L63.6286 45.9286C64.4426 46.1722 65 46.9192 65 47.7664L65 55.9379C65 56.6288 64.6274 57.2663 64.0246 57.6071L33.695 74.7504C33.1018 75.0857 32.3749 75.083 31.7842 74.7435L1.96333 57.602C1.36727 57.2594 1 56.6256 1 55.9397L1 37.5227Z" stroke="#2dd4bf" strokeWidth="2" strokeLinejoin="round"/>
</svg>