<?xml version="1.0" standalone="no"?>
<!DOCTYPE svg PUBLIC "-//W3C//DTD SVG 20010904//EN"
 "http://www.w3.org/TR/2001/REC-SVG-20010904/DTD/svg10.dtd">
<svg version="1.0" xmlns="http://www.w3.org/2000/svg"
 width="608.000000pt" height="608.000000pt" viewBox="0 0 608.000000 608.000000"
 preserveAspectRatio="xMidYMid meet">
<metadata>
Created by potrace 1.14, written by Peter Selinger 2001-2017
</metadata>
<g transform="translate(0.000000,608.000000) scale(0.100000,-0.100000)"
fill="#000000" stroke="none">
<path d="M3007 6034 c-18 -6 -198 -106 -647 -361 -146 -82 -285 -161 -309
-174 -24 -13 -51 -28 -60 -34 -9 -5 -124 -71 -256 -145 -132 -74 -241 -138
-243 -142 -2 -4 -8 -8 -13 -8 -8 0 -242 -128 -329 -180 -8 -5 -85 -48 -170
-96 -497 -281 -491 -277 -515 -323 -15 -29 -27 -75 -26 -101 2 -83 1 -113 -2
-117 -3 -2 -1 -19 3 -38 4 -19 5 -36 3 -39 -3 -3 -5 -58 -3 -123 1 -65 1 -125
1 -133 -3 -75 1 -212 6 -240 7 -42 29 -78 63 -105 26 -22 70 -46 70 -40 0 2
19 -3 43 -11 23 -9 49 -17 57 -19 8 -2 47 -14 85 -25 39 -12 84 -25 100 -30
17 -5 76 -22 133 -39 56 -17 146 -44 200 -60 53 -16 117 -36 142 -43 82 -25
154 -2 198 65 51 76 23 186 -57 226 -29 15 -237 81 -301 97 -8 2 -67 19 -130
39 -63 20 -131 40 -150 44 -51 11 -97 38 -116 67 -14 21 -17 56 -17 219 0 147
3 201 13 221 13 24 65 59 190 127 30 16 60 33 65 37 6 4 30 18 55 32 36 20
255 143 572 322 20 12 72 41 115 65 43 25 96 55 118 67 22 12 173 97 335 189
162 92 324 183 360 203 36 20 88 49 115 65 28 17 70 41 95 55 25 13 83 46 130
72 109 62 135 66 202 31 88 -45 168 -92 174 -102 3 -5 10 -7 15 -4 5 4 9 2 9
-3 0 -5 8 -12 18 -15 9 -4 37 -18 62 -33 25 -15 59 -35 75 -44 17 -9 122 -70
235 -135 113 -65 224 -129 247 -142 50 -28 262 -149 283 -163 55 -33 237 -136
248 -138 6 -2 12 -8 12 -14 0 -6 3 -8 7 -5 3 4 13 1 22 -7 9 -7 72 -45 141
-83 69 -39 213 -122 320 -184 107 -62 207 -119 222 -126 38 -19 88 -71 89 -91
0 -9 1 -330 3 -712 l1 -695 24 -38 c83 -133 296 -79 296 75 0 26 3 48 6 48 4
0 3 15 0 32 -4 18 -4 54 -1 79 3 26 3 55 -1 65 -3 11 -5 22 -2 26 2 4 3 117 3
250 -2 275 -2 247 0 313 1 28 1 55 0 60 -1 6 -2 15 -1 20 1 6 1 118 1 250 -1
132 -1 245 -1 250 0 6 0 33 1 60 1 56 -11 105 -35 142 -15 22 -91 76 -160 113
-42 23 -123 70 -335 193 -19 11 -53 30 -76 43 -22 12 -59 34 -82 48 -23 14
-44 26 -47 26 -2 0 -34 18 -70 40 -36 22 -67 40 -69 40 -2 0 -81 46 -177 101
-181 106 -190 111 -301 173 -37 21 -70 42 -74 47 -3 5 -10 7 -15 4 -5 -4 -9
-1 -9 4 0 6 -4 11 -9 11 -4 0 -48 23 -97 52 -49 28 -145 83 -212 122 -68 39
-136 78 -150 87 -15 8 -52 29 -82 46 -30 16 -89 50 -130 74 -41 25 -82 48 -90
52 -8 4 -33 18 -55 32 -22 14 -47 28 -55 32 -8 4 -31 16 -50 28 -92 57 -134
75 -183 79 -28 3 -60 2 -70 0z"/>
<path d="M2633 3926 c-34 -10 -71 -42 -88 -76 -9 -20 -12 -181 -11 -740 1
-789 -2 -752 65 -797 l34 -23 435 0 c435 0 436 0 469 23 56 37 77 106 59 186
-10 40 -31 67 -71 89 -26 13 -74 16 -324 17 l-293 1 -19 23 c-16 20 -19 41
-19 151 0 188 -25 173 306 175 267 0 270 1 303 24 67 48 85 154 40 228 -37 59
-58 63 -347 63 -326 0 -302 -14 -302 174 0 186 -28 171 324 172 308 1 329 5
371 62 31 42 29 156 -4 199 -43 57 -48 57 -493 58 -224 0 -420 -4 -435 -9z"/>
<path d="M534 3226 c-17 -8 -44 -30 -59 -50 -31 -41 -35 -72 -35 -241 1 -60 1
-114 1 -120 0 -5 -1 -32 -1 -60 -1 -27 -1 -54 0 -60 1 -5 2 -14 0 -20 -1 -5
-1 -46 0 -90 1 -94 1 -87 0 -150 -1 -27 -1 -54 0 -60 1 -5 2 -14 1 -20 -1 -5
-2 -62 -1 -125 1 -63 2 -122 1 -130 0 -13 0 -374 0 -405 0 -5 0 -30 -1 -55 -5
-102 39 -175 136 -226 21 -11 190 -108 374 -214 184 -106 350 -201 368 -212
17 -10 47 -26 65 -36 17 -11 165 -95 327 -189 162 -93 357 -205 433 -249 75
-43 159 -92 185 -107 26 -15 54 -31 62 -34 8 -4 17 -9 20 -12 3 -3 25 -17 50
-30 43 -23 319 -182 350 -201 144 -90 216 -106 299 -67 25 12 48 24 51 27 3 3
25 16 50 29 25 13 143 80 264 149 268 152 301 170 351 196 22 12 42 24 45 27
3 3 48 29 100 58 52 28 102 56 110 61 8 6 60 35 115 65 55 31 111 63 125 71
14 8 50 28 80 45 30 17 73 40 95 53 22 13 87 49 145 81 58 33 108 64 112 69 4
6 8 7 8 3 0 -5 12 0 28 11 15 11 50 32 77 46 28 15 64 35 80 45 28 17 60 34
173 98 258 144 423 240 451 261 65 49 73 90 70 362 0 8 1 38 1 67 1 28 -1 56
-4 62 -4 5 -3 12 1 14 5 3 6 85 3 184 -6 183 -10 201 -55 249 -13 13 -75 47
-92 50 -14 2 -82 23 -103 31 -8 4 -18 7 -22 8 -5 2 -9 3 -10 5 -2 1 -10 3 -18
5 -8 1 -35 8 -60 16 -25 7 -49 13 -55 15 -5 1 -39 11 -75 22 -36 11 -110 34
-165 51 -55 16 -140 42 -190 57 -104 32 -137 33 -189 9 -83 -40 -115 -151 -66
-230 27 -44 65 -63 205 -104 124 -37 190 -57 320 -97 50 -16 95 -29 100 -29
69 -7 144 -63 146 -108 4 -107 1 -359 -5 -384 -4 -18 -19 -41 -34 -51 -28 -20
-131 -78 -169 -96 -13 -6 -23 -14 -23 -18 0 -5 -4 -8 -10 -8 -9 0 -237 -127
-340 -189 -19 -11 -42 -24 -50 -28 -8 -4 -42 -23 -75 -42 -33 -20 -62 -36 -65
-36 -3 0 -21 -10 -40 -21 -94 -57 -411 -234 -419 -234 -5 0 -11 -4 -13 -8 -3
-7 -67 -44 -258 -150 -25 -13 -49 -28 -55 -32 -5 -4 -39 -23 -75 -42 -82 -45
-130 -72 -255 -143 -152 -87 -153 -87 -264 -150 -58 -32 -119 -59 -137 -60
-23 -2 -56 11 -111 42 -89 52 -86 50 -322 185 -97 56 -239 138 -316 183 -77
45 -147 84 -155 88 -8 4 -30 16 -49 28 -33 19 -261 151 -343 198 -21 11 -54
30 -74 41 -19 11 -45 26 -57 34 -45 28 -172 101 -177 101 -3 0 -16 8 -30 17
-29 18 -135 80 -200 116 -25 13 -49 28 -55 32 -5 4 -30 19 -55 32 -214 119
-278 159 -296 186 -16 24 -17 76 -18 732 l-1 705 -24 38 c-42 67 -133 95 -207
63z"/>
</g>
</svg>
